<svg width="200" height="200" viewBox="0 0 200 200" fill="none" xmlns="http://www.w3.org/2000/svg">
<path d="M66.6667 16.6666H41.6667C35.0362 16.6666 28.6774 19.3005 23.989 23.989C19.3006 28.6774 16.6667 35.0362 16.6667 41.6666V66.6666H39.2333C37.5555 62.8281 37.0739 58.5729 37.8514 54.4565C38.6288 50.34 40.6292 46.5536 43.5914 43.5914C46.5536 40.6291 50.34 38.6288 54.4565 37.8513C58.5729 37.0739 62.8281 37.5555 66.6667 39.2333V16.6666ZM16.6667 79.1666V116.667C16.6667 123.297 19.3006 129.656 23.989 134.344C28.6774 139.033 35.0362 141.667 41.6667 141.667H66.6667V88L52.3333 102.333C51.1485 103.437 49.5815 104.038 47.9623 104.01C46.3431 103.981 44.7982 103.325 43.6531 102.18C42.508 101.035 41.8521 99.4901 41.8235 97.871C41.795 96.2518 42.396 94.6847 43.5 93.5L57.8333 79.1666H16.6667ZM79.1667 141.667H91.825C92.6147 131.434 96.2951 121.637 102.438 113.415C108.58 105.193 116.932 98.8856 126.521 95.2269C136.109 91.5682 146.54 90.7088 156.598 92.7488C166.656 94.7889 175.928 99.6444 183.333 106.75V79.1666H88L102.333 93.5C102.947 94.0721 103.44 94.7621 103.781 95.5288C104.123 96.2955 104.307 97.1231 104.322 97.9623C104.336 98.8015 104.182 99.635 103.868 100.413C103.553 101.192 103.085 101.898 102.492 102.492C101.898 103.085 101.192 103.553 100.413 103.868C99.6351 104.182 98.8015 104.336 97.9623 104.322C97.1231 104.307 96.2955 104.123 95.5288 103.781C94.7622 103.44 94.0722 102.947 93.5 102.333L79.1667 88V141.667ZM183.333 66.6666H106.6C108.278 62.8281 108.759 58.5729 107.982 54.4565C107.205 50.34 105.204 46.5536 102.242 43.5914C99.2797 40.6291 95.4933 38.6288 91.3768 37.8513C87.2604 37.0739 83.0052 37.5555 79.1667 39.2333V16.6666H158.333C164.964 16.6666 171.323 19.3005 176.011 23.989C180.699 28.6774 183.333 35.0362 183.333 41.6666V66.6666ZM87.5 66.6666H79.1667V58.3333C79.1667 56.6851 79.6554 55.0739 80.5711 53.7035C81.4868 52.3331 82.7882 51.265 84.311 50.6343C85.8337 50.0036 87.5092 49.8385 89.1257 50.1601C90.7422 50.4816 92.2271 51.2753 93.3925 52.4407C94.558 53.6062 95.3517 55.091 95.6732 56.7075C95.9947 58.324 95.8297 59.9996 95.199 61.5223C94.5683 63.045 93.5002 64.3465 92.1297 65.2622C90.7593 66.1779 89.1482 66.6666 87.5 66.6666ZM66.6667 66.6666H58.3333C56.688 66.6666 55.0795 66.1795 53.7106 65.2667C52.3416 64.3539 51.2736 63.0564 50.6409 61.5375C50.0083 60.0187 49.8394 58.3466 50.1556 56.7319C50.4717 55.1172 51.2588 53.6323 52.4176 52.4643C53.5764 51.2962 55.055 50.4973 56.6671 50.1683C58.2792 49.8393 59.9526 49.9948 61.4764 50.6153C63.0003 51.2358 64.3063 52.2936 65.2299 53.6552C66.1536 55.0168 66.6535 56.6214 66.6667 58.2666V66.6666ZM191.667 145.833C191.667 133.678 186.838 122.02 178.242 113.424C169.647 104.829 157.989 100 145.833 100C133.678 100 122.02 104.829 113.424 113.424C104.829 122.02 100 133.678 100 145.833C100 157.989 104.829 169.647 113.424 178.242C122.02 186.838 133.678 191.667 145.833 191.667C157.989 191.667 169.647 186.838 178.242 178.242C186.838 169.647 191.667 157.989 191.667 145.833ZM150 150L150.008 170.858C150.008 171.963 149.569 173.023 148.788 173.805C148.007 174.586 146.947 175.025 145.842 175.025C144.737 175.025 143.677 174.586 142.895 173.805C142.114 173.023 141.675 171.963 141.675 170.858V150H120.8C119.695 150 118.635 149.561 117.854 148.78C117.072 147.998 116.633 146.938 116.633 145.833C116.633 144.728 117.072 143.668 117.854 142.887C118.635 142.106 119.695 141.667 120.8 141.667H141.667V120.833C141.667 119.728 142.106 118.668 142.887 117.887C143.668 117.106 144.728 116.667 145.833 116.667C146.938 116.667 147.998 117.106 148.78 117.887C149.561 118.668 150 119.728 150 120.833V141.667H170.808C171.913 141.667 172.973 142.106 173.755 142.887C174.536 143.668 174.975 144.728 174.975 145.833C174.975 146.938 174.536 147.998 173.755 148.78C172.973 149.561 171.913 150 170.808 150H150Z" fill="#D4D4D4"/>
</svg>
