<svg width="150" height="150" viewBox="0 0 150 150" fill="none" xmlns="http://www.w3.org/2000/svg">
<path d="M58.3333 0H8.33333C6.1232 0 4.00358 0.877973 2.44078 2.44078C0.877973 4.00358 0 6.1232 0 8.33333V58.3333C0 60.5435 0.877973 62.6631 2.44078 64.2259C4.00358 65.7887 6.1232 66.6667 8.33333 66.6667H58.3333C60.5435 66.6667 62.6631 65.7887 64.2259 64.2259C65.7887 62.6631 66.6667 60.5435 66.6667 58.3333V8.33333C66.6667 6.1232 65.7887 4.00358 64.2259 2.44078C62.6631 0.877973 60.5435 0 58.3333 0ZM141.667 0H91.6667C89.4565 0 87.3369 0.877973 85.7741 2.44078C84.2113 4.00358 83.3333 6.1232 83.3333 8.33333V58.3333C83.3333 60.5435 84.2113 62.6631 85.7741 64.2259C87.3369 65.7887 89.4565 66.6667 91.6667 66.6667H141.667C143.877 66.6667 145.996 65.7887 147.559 64.2259C149.122 62.6631 150 60.5435 150 58.3333V8.33333C150 6.1232 149.122 4.00358 147.559 2.44078C145.996 0.877973 143.877 0 141.667 0ZM58.3333 83.3333H8.33333C6.1232 83.3333 4.00358 84.2113 2.44078 85.7741C0.877973 87.3369 0 89.4565 0 91.6667V141.667C0 143.877 0.877973 145.996 2.44078 147.559C4.00358 149.122 6.1232 150 8.33333 150H58.3333C60.5435 150 62.6631 149.122 64.2259 147.559C65.7887 145.996 66.6667 143.877 66.6667 141.667V91.6667C66.6667 89.4565 65.7887 87.3369 64.2259 85.7741C62.6631 84.2113 60.5435 83.3333 58.3333 83.3333ZM116.667 83.3333C123.188 83.3333 129.567 85.2465 135.012 88.8358C140.457 92.4251 144.73 97.5329 147.301 103.526C149.872 109.52 150.628 116.136 149.476 122.555C148.324 128.974 145.314 134.915 140.819 139.64C136.324 144.366 130.542 147.669 124.188 149.14C117.835 150.612 111.189 150.187 105.075 147.919C98.9599 145.651 93.6449 141.639 89.7878 136.381C85.9307 131.122 83.7011 124.847 83.375 118.333L83.3333 116.667L83.375 115C83.8026 106.459 87.4967 98.4084 93.6932 92.5144C99.8898 86.6203 108.115 83.3333 116.667 83.3333Z" fill="#D4D4D4"/>
</svg>
