<svg width="100" height="100" viewBox="0 0 100 100" fill="none" xmlns="http://www.w3.org/2000/svg">
<path d="M28.5714 0H14.2857C10.4969 0 6.86328 1.5051 4.18419 4.18419C1.5051 6.86328 0 10.4969 0 14.2857V28.5714H12.8952C11.9365 26.378 11.6613 23.9464 12.1055 21.5942C12.5498 19.2419 13.6929 17.0783 15.3856 15.3856C17.0783 13.6929 19.2419 12.5498 21.5942 12.1055C23.9464 11.6613 26.378 11.9365 28.5714 12.8952V0ZM0 35.7143V57.1429C0 60.9317 1.5051 64.5653 4.18419 67.2444C6.86328 69.9235 10.4969 71.4286 14.2857 71.4286H28.5714V40.7619L20.381 48.9524C19.7039 49.5832 18.8085 49.9267 17.8832 49.9104C16.958 49.894 16.0752 49.5192 15.4208 48.8649C14.7665 48.2105 14.3917 47.3277 14.3754 46.4025C14.359 45.4772 14.7025 44.5818 15.3333 43.9048L23.5238 35.7143H0ZM35.7143 71.4286H42.9476C43.3989 65.5814 45.502 59.9828 49.012 55.2847C52.5221 50.5865 57.2946 46.9823 62.7738 44.8916C68.253 42.8009 74.2134 42.3098 79.9609 43.4756C85.7084 44.6413 91.0065 47.4159 95.2381 51.4762V35.7143H40.7619L48.9524 43.9048C49.3033 44.2317 49.5847 44.626 49.7799 45.0641C49.9751 45.5022 50.0801 45.9751 50.0885 46.4547C50.097 46.9342 50.0088 47.4105 49.8292 47.8552C49.6495 48.2999 49.3822 48.7039 49.043 49.043C48.7039 49.3822 48.2999 49.6495 47.8552 49.8292C47.4105 50.0088 46.9342 50.097 46.4547 50.0885C45.9751 50.0801 45.5022 49.9751 45.0641 49.7799C44.626 49.5847 44.2317 49.3033 43.9048 48.9524L35.7143 40.7619V71.4286ZM95.2381 28.5714H51.3905C52.3492 26.378 52.6244 23.9464 52.1802 21.5942C51.7359 19.2419 50.5928 17.0783 48.9002 15.3856C47.2075 13.6929 45.0438 12.5498 42.6915 12.1055C40.3393 11.6613 37.9077 11.9365 35.7143 12.8952V0H80.9524C84.7412 0 88.3748 1.5051 91.0539 4.18419C93.733 6.86328 95.2381 10.4969 95.2381 14.2857V28.5714ZM40.4762 28.5714H35.7143V23.8095C35.7143 22.8677 35.9936 21.947 36.5168 21.164C37.0401 20.3809 37.7838 19.7705 38.6539 19.4101C39.524 19.0497 40.4815 18.9554 41.4052 19.1391C42.3289 19.3229 43.1774 19.7764 43.8434 20.4424C44.5093 21.1083 44.9629 21.9568 45.1466 22.8805C45.3303 23.8042 45.236 24.7617 44.8756 25.6318C44.5152 26.502 43.9049 27.2457 43.1218 27.7689C42.3387 28.2921 41.418 28.5714 40.4762 28.5714ZM28.5714 28.5714H23.8095C22.8693 28.5714 21.9502 28.2931 21.168 27.7715C20.3857 27.2499 19.7754 26.5084 19.4139 25.6405C19.0524 24.7726 18.9558 23.8171 19.1365 22.8944C19.3172 21.9718 19.767 21.1232 20.4291 20.4558C21.0913 19.7883 21.9362 19.3318 22.8574 19.1438C23.7786 18.9558 24.7348 19.0447 25.6056 19.3993C26.4763 19.7538 27.2227 20.3583 27.7505 21.1363C28.2782 21.9144 28.5639 22.8313 28.5714 23.7714V28.5714ZM100 73.8095C100 66.8634 97.2407 60.2017 92.329 55.2901C87.4173 50.3784 80.7557 47.619 73.8095 47.619C66.8634 47.619 60.2017 50.3784 55.2901 55.2901C50.3784 60.2017 47.619 66.8634 47.619 73.8095C47.619 80.7557 50.3784 87.4173 55.2901 92.329C60.2017 97.2407 66.8634 100 73.8095 100C80.7557 100 87.4173 97.2407 92.329 92.329C97.2407 87.4173 100 80.7557 100 73.8095ZM76.1905 76.1905L76.1952 88.1095C76.1952 88.741 75.9444 89.3466 75.4979 89.7931C75.0514 90.2396 74.4457 90.4905 73.8143 90.4905C73.1828 90.4905 72.5772 90.2396 72.1307 89.7931C71.6842 89.3466 71.4333 88.741 71.4333 88.1095V76.1905H59.5048C58.8733 76.1905 58.2677 75.9396 57.8212 75.4931C57.3747 75.0466 57.1238 74.441 57.1238 73.8095C57.1238 73.1781 57.3747 72.5725 57.8212 72.1259C58.2677 71.6794 58.8733 71.4286 59.5048 71.4286H71.4286V59.5238C71.4286 58.8923 71.6794 58.2867 72.1259 57.8402C72.5725 57.3937 73.1781 57.1429 73.8095 57.1429C74.441 57.1429 75.0466 57.3937 75.4931 57.8402C75.9396 58.2867 76.1905 58.8923 76.1905 59.5238V71.4286H88.081C88.7124 71.4286 89.318 71.6794 89.7645 72.1259C90.2111 72.5725 90.4619 73.1781 90.4619 73.8095C90.4619 74.441 90.2111 75.0466 89.7645 75.4931C89.318 75.9396 88.7124 76.1905 88.081 76.1905H76.1905Z" fill="#D4D4D4"/>
</svg>
