<svg width="184" height="134" viewBox="0 0 184 134" fill="none" xmlns="http://www.w3.org/2000/svg">
<path d="M0.0892944 65.7857H58.5179C55.148 64.3014 52.0335 62.2945 49.2893 59.8393C46.7115 57.5441 44.5888 54.7841 43.0322 51.7036C41.5183 48.6688 40.7413 45.3199 40.7643 41.9286C40.7643 37.8571 41.6774 34.2321 43.5036 31.0536C45.2732 27.9257 47.8529 25.3324 50.9714 23.5464C54.1286 21.7202 57.7143 20.8071 61.7286 20.8071C65.2214 20.8071 68.5452 21.4976 71.7 22.8786C74.9162 24.3056 77.8451 26.3074 80.3429 28.7857C83.0282 31.4493 85.2493 34.5431 86.9143 37.9393V2.08855e-06H97.1643V37.9393C98.8742 34.5512 101.118 31.4604 103.811 28.7857C106.308 26.3074 109.237 24.3056 112.454 22.8786C115.571 21.5014 118.942 20.7957 122.35 20.8071C126.364 20.8071 129.95 21.7202 133.107 23.5464C136.226 25.3324 138.805 27.9257 140.575 31.0536C142.401 34.2345 143.314 37.8595 143.314 41.9286C143.314 45.4214 142.571 48.6798 141.086 51.7036C139.555 54.7904 137.442 57.5528 134.864 59.8393C132.1 62.3064 128.958 64.3141 125.557 65.7857H183.911V75.0929H105.296C106.496 77.5976 108.296 80.2964 110.696 83.1893C113.191 86.1844 115.94 88.9589 118.911 91.4822C121.83 94.0042 125.001 96.2183 128.375 98.0893C131.608 99.8655 134.658 100.908 137.525 101.218C139.715 101.427 141.398 102.171 142.571 103.45C143.743 104.726 144.33 106.381 144.332 108.414C144.332 110.24 143.642 111.857 142.261 113.264C140.875 114.674 138.983 115.221 136.586 114.907C133.352 114.44 129.793 113.214 125.907 111.229C121.813 109.107 117.958 106.55 114.411 103.604C110.642 100.513 107.243 96.9967 104.282 93.125C101.306 89.2393 99.1417 85.1583 97.7893 80.8821H97.1643V133.604H86.9143V80.8821H86.3679C85.0107 85.1583 82.8464 89.2393 79.875 93.125C76.9141 96.9967 73.5153 100.513 69.7464 103.604C66.1901 106.558 62.3219 109.116 58.2107 111.232C54.2964 113.213 50.7488 114.439 47.5679 114.911C45.1726 115.22 43.2833 114.673 41.9 113.268C40.5191 111.856 39.8286 110.238 39.8286 108.414C39.8286 106.381 40.4143 104.726 41.5857 103.45C42.7595 102.171 44.4143 101.427 46.55 101.218C49.4738 100.908 52.5512 99.8524 55.7822 98.05C59.1536 96.1603 62.3246 93.9334 65.2464 91.4036C68.209 88.8853 70.9566 86.1246 73.4607 83.15C75.8607 80.2833 77.6595 77.5976 78.8572 75.0929H0.0892944V65.7857ZM82.925 64.5357H85.4286V62.1857C85.4286 58.2214 84.8167 54.4798 83.5929 50.9607C82.4386 47.5758 80.7335 44.4046 78.5464 41.575C76.4083 38.8369 73.9572 36.6857 71.1929 35.1214C68.5033 33.5775 65.4548 32.7683 62.3536 32.775C59.3822 32.775 57.0095 33.675 55.2357 35.475C53.4643 37.2726 52.5774 39.7369 52.575 42.8679C52.575 45.475 53.3845 48.056 55.0036 50.6107C56.6179 53.1655 58.8333 55.4988 61.65 57.6107C64.599 59.7906 67.8723 61.4936 71.35 62.6571C75.0771 63.922 78.9892 64.5593 82.925 64.5357ZM101.154 64.5321C105.115 64.5567 109.054 63.9218 112.807 62.6536C116.285 61.49 119.558 59.7871 122.507 57.6071C125.321 55.4952 127.524 53.1619 129.114 50.6071C130.707 48.05 131.504 45.4679 131.504 42.8607C131.504 39.7321 130.63 37.2679 128.882 35.4679C127.135 33.6679 124.749 32.7691 121.725 32.7714C118.646 32.7714 115.726 33.5536 112.964 35.1179C110.202 36.6821 107.751 38.8333 105.611 41.5714C103.421 44.4053 101.703 47.5748 100.525 50.9571C99.2589 54.5631 98.6246 58.3605 98.65 62.1821V64.5286L101.154 64.5321ZM24.6536 133.6H159.35C167.536 133.6 173.676 131.58 177.771 127.539C181.864 123.496 183.911 117.461 183.911 109.432V24.25C183.911 16.219 181.863 10.1691 177.768 6.1C173.673 2.03096 167.535 -0.00237886 159.354 2.08855e-06H24.65C16.4667 2.08855e-06 10.3274 2.02024 6.23215 6.06072C2.13691 10.1012 0.0892944 16.1643 0.0892944 24.25V109.429C0.0892944 117.462 2.13691 123.498 6.23215 127.536C10.325 131.579 16.4643 133.6 24.65 133.6" fill="#D4D4D4"/>
</svg>
