<svg width="201" height="151" viewBox="0 0 201 151" fill="none" xmlns="http://www.w3.org/2000/svg">
<path d="M63.1436 0.166992L35.0186 0.166992C25.9018 0.166992 17.1584 3.78863 10.7118 10.2352C4.26526 16.6818 0.643616 25.4252 0.643616 34.542L0.643616 62.667H28.9936C26.2424 57.901 25.1406 52.3604 25.8591 46.9045C26.5776 41.4485 29.0762 36.3821 32.9674 32.4908C36.8587 28.5996 41.9251 26.101 47.3811 25.3825C52.8371 24.664 58.3776 25.7658 63.1436 28.517V0.166992ZM75.6436 50.167V62.667H88.1436C90.6159 62.667 93.0326 61.9339 95.0882 60.5604C97.1439 59.1868 98.746 57.2346 99.6921 54.9505C100.638 52.6665 100.886 50.1531 100.403 47.7284C99.9211 45.3036 98.7306 43.0763 96.9824 41.3282C95.2343 39.58 93.007 38.3895 90.5822 37.9072C88.1575 37.4249 85.6441 37.6724 83.3601 38.6185C81.076 39.5646 79.1238 41.1668 77.7502 43.2224C76.3767 45.278 75.6436 47.6947 75.6436 50.167ZM109.794 62.667C112.545 57.901 113.647 52.3604 112.928 46.9045C112.21 41.4485 109.711 36.3821 105.82 32.4908C101.929 28.5996 96.8621 26.101 91.4061 25.3825C85.9502 24.664 80.4096 25.7658 75.6436 28.517V0.166992L166.269 0.166992C175.385 0.166992 184.129 3.78863 190.575 10.2352C197.022 16.6818 200.644 25.4252 200.644 34.542V62.667L109.794 62.667ZM84.4811 75.167L105.069 95.742C106.242 96.9156 106.902 98.5073 106.902 100.167C106.902 101.827 106.242 103.418 105.069 104.592C103.895 105.766 102.303 106.425 100.644 106.425C98.9839 106.425 97.3922 105.766 96.2186 104.592L75.6436 84.0045L75.6436 150.167H166.269C175.385 150.167 184.129 146.545 190.575 140.099C197.022 133.652 200.644 124.909 200.644 115.792V75.167L84.4811 75.167ZM63.1436 150.167V84.0045L42.5686 104.592C41.395 105.766 39.8033 106.425 38.1436 106.425C36.4839 106.425 34.8922 105.766 33.7186 104.592C32.545 103.418 31.8857 101.827 31.8857 100.167C31.8857 98.5073 32.545 96.9156 33.7186 95.742L54.3061 75.167H0.643616L0.643616 115.792C0.643616 124.909 4.26526 133.652 10.7118 140.099C17.1584 146.545 25.9018 150.167 35.0186 150.167H63.1436ZM63.1436 50.167C63.1436 47.6947 62.4105 45.278 61.037 43.2224C59.6635 41.1668 57.7112 39.5646 55.4272 38.6185C53.1431 37.6724 50.6297 37.4249 48.205 37.9072C45.7802 38.3895 43.5529 39.58 41.8048 41.3282C40.0566 43.0763 38.8661 45.3036 38.3838 47.7284C37.9015 50.1531 38.149 52.6665 39.0951 54.9505C40.0412 57.2346 41.6434 59.1868 43.699 60.5604C45.7546 61.9339 48.1713 62.667 50.6436 62.667H63.1436V50.167Z" fill="#6B727F"/>
</svg>
